<mxfile host="app.diagrams.net" agent="Mozilla/5.0 (Windows NT 10.0; Win64; x64) AppleWebKit/537.36 (KHTML, like Gecko) Chrome/131.0.0.0 Safari/537.36" version="26.0.5">
  <diagram name="PÃ¡gina-1" id="qwnmiHC7DtRIaL1m-11j">
    <mxGraphModel dx="833" dy="500" grid="1" gridSize="10" guides="1" tooltips="1" connect="1" arrows="1" fold="1" page="1" pageScale="1" pageWidth="827" pageHeight="1169" math="0" shadow="0">
      <root>
        <mxCell id="0" />
        <mxCell id="1" parent="0" />
        <mxCell id="yZuMUpjPVAMXF4hLWfV3-1" value="Llega un correo con archivos adjuntos" style="strokeWidth=2;html=1;shape=mxgraph.flowchart.start_1;whiteSpace=wrap;" vertex="1" parent="1">
          <mxGeometry x="346" y="40" width="136" height="60" as="geometry" />
        </mxCell>
        <mxCell id="yZuMUpjPVAMXF4hLWfV3-2" value="Extrae &#39;asunto&#39; y &#39;nombre_remitente&#39;" style="shape=parallelogram;html=1;strokeWidth=2;perimeter=parallelogramPerimeter;whiteSpace=wrap;rounded=1;arcSize=12;size=0.23;" vertex="1" parent="1">
          <mxGeometry x="332" y="140" width="164" height="60" as="geometry" />
        </mxCell>
        <mxCell id="yZuMUpjPVAMXF4hLWfV3-3" value="Inician todas las variables" style="rounded=1;whiteSpace=wrap;html=1;absoluteArcSize=1;arcSize=14;strokeWidth=2;" vertex="1" parent="1">
          <mxGeometry x="364" y="240" width="100" height="60" as="geometry" />
        </mxCell>
        <mxCell id="yZuMUpjPVAMXF4hLWfV3-4" value="Verifica length" style="rounded=1;whiteSpace=wrap;html=1;absoluteArcSize=1;arcSize=14;strokeWidth=2;" vertex="1" parent="1">
          <mxGeometry x="351" y="340" width="126" height="70" as="geometry" />
        </mxCell>
      </root>
    </mxGraphModel>
  </diagram>
</mxfile>
